<svg width="24" height="24" viewBox="0 0 24 24" fill="none" xmlns="http://www.w3.org/2000/svg">
<path d="M5 22C4.45 22 3.97917 21.8042 3.5875 21.4125C3.19583 21.0208 3 20.55 3 20V6C3 5.45 3.19583 4.97917 3.5875 4.5875C3.97917 4.19583 4.45 4 5 4H6V2H8V4H16V2H18V4H19C19.55 4 20.0208 4.19583 20.4125 4.5875C20.8042 4.97917 21 5.45 21 6V20C21 20.55 20.8042 21.0208 20.4125 21.4125C20.0208 21.8042 19.55 22 19 22H5ZM5 20H19V10H5V20ZM5 8H19V6H5V8Z" fill="#EE4136"/>
<g clip-path="url(#clip0_1_697)">
<path d="M14.3307 15.5837H14.5807V15.3337V14.667V14.417H14.3307H12.5807V12.667V12.417H12.3307H11.6641H11.4141V12.667V14.417H9.66406H9.41406V14.667V15.3337V15.5837H9.66406H11.4141V17.3337V17.5837H11.6641H12.3307H12.5807V17.3337V15.5837H14.3307Z" fill="#EE4136" stroke="#EE4136" stroke-width="0.5"/>
</g>
<defs>
<clipPath id="clip0_1_697">
<rect width="8" height="8" fill="white" transform="translate(8 11)"/>
</clipPath>
</defs>
</svg>
