<svg width="262" height="128" viewBox="0 0 262 128" fill="none" xmlns="http://www.w3.org/2000/svg">
<path fill-rule="evenodd" clip-rule="evenodd" d="M254.646 27.2801C254.646 31.2633 253.792 35.0472 252.258 38.4587C258.114 42.194 261.998 48.748 261.998 56.2091C261.998 66.1987 255.036 74.5621 245.699 76.7115C246.762 79.3266 247.348 82.1867 247.348 85.1837C247.348 97.6134 237.272 107.69 224.842 107.69C221.965 107.69 219.215 107.15 216.686 106.166C212.725 109.642 207.533 111.748 201.85 111.748C192.283 111.748 184.11 105.779 180.853 97.3614C180.221 97.3252 179.596 97.2603 178.98 97.168C176.195 107.683 166.614 115.433 155.223 115.433C145.854 115.433 137.71 110.191 133.564 102.479C132.155 116.698 120.159 127.803 105.57 127.803C90.0328 127.803 77.4375 115.208 77.4375 99.6706C77.4375 84.1334 90.0328 71.5381 105.57 71.5381C116.706 71.5381 126.332 78.0089 130.891 87.3959C132.573 75.4634 142.826 66.2842 155.223 66.2842C158.023 66.2842 160.713 66.7524 163.221 67.6149C166.514 60.4381 173.705 55.4609 182.047 55.4609C190.06 55.4609 197.011 60.0542 200.466 66.7782C200.924 66.7504 201.385 66.7363 201.85 66.7363C204.726 66.7363 207.477 67.276 210.006 68.2597C213.064 65.5766 216.856 63.7092 221.041 62.9973C220.316 60.8676 219.922 58.5843 219.922 56.2091C219.922 55.3179 219.977 54.4397 220.085 53.5776C208.553 50.3919 200.086 39.8248 200.086 27.2801C200.086 12.2137 212.3 0 227.366 0C242.432 0 254.646 12.2137 254.646 27.2801Z" fill="#E5F7FD" fill-opacity="0.7"/>
<path fill-rule="evenodd" clip-rule="evenodd" d="M166.835 22.32C166.835 28.4454 164.368 33.9945 160.373 38.0275C168.753 40.1676 174.95 47.7676 174.95 56.8149C174.95 66.4994 167.85 74.5256 158.571 75.9718C159.254 78.0288 159.624 80.2289 159.624 82.5153C159.624 93.9707 150.338 103.257 138.882 103.257C134.15 103.257 129.787 101.672 126.297 99.0038C122.739 105.311 115.976 109.57 108.218 109.57C98.7295 109.57 90.7287 103.198 88.2615 94.4994C87.4162 94.6258 86.5514 94.6912 85.6714 94.6912C83.3844 94.6912 81.1994 94.2491 79.1952 93.4445C77.0506 101.685 69.5597 107.768 60.648 107.768C56.3775 107.768 52.4332 106.371 49.2471 104.009C45.039 112.642 36.1779 118.591 25.9273 118.591C11.6081 118.591 0 106.983 0 92.6637C0 78.3444 11.6081 66.7363 25.9273 66.7363C34.0181 66.7363 41.2433 70.4423 45.9981 76.2493C49.5134 72.0852 54.7719 69.4404 60.648 69.4404C63.6248 69.4404 66.4431 70.1191 68.9565 71.3303C71.2594 64.2112 77.8726 59.0693 85.6714 59.0693C92.6628 59.0693 98.7012 63.2015 101.536 69.186C103.633 68.4728 105.88 68.0859 108.218 68.0859C112.951 68.0859 117.314 69.671 120.804 72.3393C124.046 66.593 129.947 62.547 136.838 61.8729C136.404 60.2604 136.172 58.5647 136.172 56.8149C136.172 52.0548 137.887 47.6954 140.733 44.321C130.208 42.5245 122.195 33.358 122.195 22.32C122.195 9.99303 132.188 0 144.515 0C156.842 0 166.835 9.99303 166.835 22.32Z" fill="#E5F7FD"/>
</svg>
