<svg width="359" height="297" viewBox="0 0 359 297" fill="none" xmlns="http://www.w3.org/2000/svg">
<g id="Group 2">
<path id="Fill 1" fill-rule="evenodd" clip-rule="evenodd" d="M333.35 163.945C319.702 185.972 322.26 215.979 328.254 239.64C330.259 247.562 332.57 255.925 330.856 264.79C328.758 275.631 321.112 284.144 313.374 289.02C299.266 297.886 283.157 297.64 271.427 288.369C261.297 280.364 254.626 266.398 244.283 258.821C226.99 246.138 203.242 253.825 182.622 265.679C168.04 274.046 151.99 284.691 138.511 278.663C129.029 274.431 123.117 262.489 120.357 249.493C119.025 243.219 118.219 236.365 115.165 231.585C113.348 228.744 110.849 226.842 108.259 225.282C84.618 211.06 52.6321 222.95 29.8336 206.846C14.4343 195.971 5.68161 173.512 2.80424 149.495C-0.0740345 125.479 2.29268 99.7814 5.25487 74.4795C7.36269 56.491 10.2142 37.247 19.6784 22.6176C29.6898 7.14371 45.4712 0.224431 59.1885 1.69264C72.9058 3.16086 84.8162 11.8316 95.0821 22.4308C107.913 35.676 119.485 52.5922 136.09 56.8655C147.402 59.7769 159.754 56.407 171.782 54.5009C191.865 51.3143 211.668 52.2285 231.331 53.4259C250.156 54.5706 269.094 55.996 286.634 62.6034C299.046 67.2841 308.572 77.0272 320.155 83.3639C327.705 87.4942 336.224 88.0187 343.259 93.5252C351.924 100.31 359.423 112.832 355.953 128.662C352.645 143.721 340.591 152.255 333.35 163.945Z" fill="#F2F3F4"/>
<path id="Stroke 3" fill-rule="evenodd" clip-rule="evenodd" d="M333.35 163.945C319.702 185.972 322.26 215.979 328.254 239.64C330.259 247.562 332.57 255.925 330.856 264.79C328.758 275.631 321.112 284.144 313.374 289.02C299.266 297.886 283.157 297.64 271.427 288.369C261.297 280.364 254.626 266.398 244.283 258.821C226.99 246.138 203.242 253.825 182.622 265.679C168.04 274.046 151.99 284.691 138.511 278.663C129.029 274.431 123.117 262.489 120.357 249.493C119.025 243.219 118.219 236.365 115.165 231.585C113.348 228.744 110.849 226.842 108.259 225.282C84.618 211.06 52.6321 222.95 29.8336 206.846C14.4343 195.971 5.68161 173.512 2.80424 149.495C-0.0740345 125.479 2.29268 99.7814 5.25487 74.4795C7.36269 56.491 10.2142 37.247 19.6784 22.6176C29.6898 7.14371 45.4712 0.224431 59.1885 1.69264C72.9058 3.16086 84.8162 11.8316 95.0821 22.4308C107.913 35.676 119.485 52.5922 136.09 56.8655C147.402 59.7769 159.754 56.407 171.782 54.5009C191.865 51.3143 211.668 52.2285 231.331 53.4259C250.156 54.5706 269.094 55.996 286.634 62.6034C299.046 67.2841 308.572 77.0272 320.155 83.3639C327.705 87.4942 336.224 88.0187 343.259 93.5252C351.924 100.31 359.423 112.832 355.953 128.662C352.645 143.721 340.591 152.255 333.35 163.945Z" stroke="#979797" stroke-width="0.28"/>
<path id="Fill 5" fill-rule="evenodd" clip-rule="evenodd" d="M305.042 73.1213L288.973 69.4146C288.973 69.4146 292.765 86.757 305.042 73.1213Z" fill="#6C63FF"/>
<path id="Fill 7" fill-rule="evenodd" clip-rule="evenodd" d="M311.284 60.3997L297 57.7983C297 57.7983 305.972 71.9756 311.284 60.3997Z" fill="#6C63FF"/>
<path id="Stroke 9" d="M114.424 105.159C114.424 105.159 77.2212 74.0657 68.9479 58.3881C60.6756 42.7114 50.1445 29.2017 50.1445 29.2017" stroke="#535461" stroke-width="1.12"/>
<path id="Fill 11" fill-rule="evenodd" clip-rule="evenodd" d="M48.9141 55.0196L65.8453 54.0161C65.8453 54.0161 58.1899 70.3425 48.9141 55.0196Z" fill="#F8DEDC"/>
<path id="Stroke 13" fill-rule="evenodd" clip-rule="evenodd" d="M48.9141 55.0196L65.8453 54.0161C65.8453 54.0161 58.1899 70.3425 48.9141 55.0196Z" stroke="#FFA7A1" stroke-width="0.28"/>
<path id="Fill 15" fill-rule="evenodd" clip-rule="evenodd" d="M71.0277 39.0322L63.5508 48.8191C63.5508 48.8191 76.786 50.0729 71.0277 39.0322Z" fill="#F8DEDC"/>
<path id="Stroke 17" fill-rule="evenodd" clip-rule="evenodd" d="M71.0277 39.0322L63.5508 48.8191C63.5508 48.8191 76.786 50.0729 71.0277 39.0322Z" stroke="#FFA7A1" stroke-width="0.28"/>
<path id="Fill 19" fill-rule="evenodd" clip-rule="evenodd" d="M56.4014 37.2437C56.4014 37.2437 43.9339 37.837 42.4671 39.0273C41.0003 40.2176 44.3258 47.1932 49.0673 46.0547C53.8088 44.9154 56.4014 37.2437 56.4014 37.2437Z" fill="#F8DEDC"/>
<path id="Stroke 21" fill-rule="evenodd" clip-rule="evenodd" d="M56.4014 37.2437C56.4014 37.2437 43.9339 37.837 42.4671 39.0273C41.0003 40.2176 44.3258 47.1932 49.0673 46.0547C53.8088 44.9154 56.4014 37.2437 56.4014 37.2437Z" stroke="#FFA7A1" stroke-width="0.28"/>
<path id="Fill 23" fill-rule="evenodd" clip-rule="evenodd" d="M61.4492 26.521C61.4492 26.521 56.2113 35.6198 56.4077 37.3525C56.6032 39.0853 64.3899 41.0298 65.963 34.476C67.5351 27.9231 61.4492 26.521 61.4492 26.521Z" fill="#F8DEDC"/>
<path id="Stroke 25" fill-rule="evenodd" clip-rule="evenodd" d="M61.4492 26.521C61.4492 26.521 56.2113 35.6198 56.4077 37.3525C56.6032 39.0853 64.3899 41.0298 65.963 34.476C67.5351 27.9231 61.4492 26.521 61.4492 26.521Z" stroke="#FFA7A1" stroke-width="0.28"/>
<path id="Fill 27" fill-rule="evenodd" clip-rule="evenodd" d="M51.7708 30.997C51.1941 29.1669 49.2407 28.1526 47.4097 28.7317C45.5777 29.3108 44.5609 31.2633 45.1385 33.0934C45.7161 34.9236 47.6686 35.9369 49.5005 35.3588C51.3316 34.7797 52.3475 32.8262 51.7708 30.997Z" fill="#F8DEDC"/>
<path id="Stroke 29" fill-rule="evenodd" clip-rule="evenodd" d="M51.7708 30.997C51.1941 29.1669 49.2407 28.1526 47.4097 28.7317C45.5777 29.3108 44.5609 31.2633 45.1385 33.0934C45.7161 34.9236 47.6686 35.9369 49.5005 35.3588C51.3316 34.7797 52.3475 32.8262 51.7708 30.997Z" stroke="#FFA7A1" stroke-width="0.28"/>
<path id="Fill 31" fill-rule="evenodd" clip-rule="evenodd" d="M57.22 27.4213C56.6424 25.5912 54.6899 24.5769 52.858 25.156C51.0269 25.7351 50.0101 27.6876 50.5877 29.5178C51.1644 31.3479 53.1178 32.3621 54.9488 31.7831C56.7808 31.204 57.7968 29.2515 57.22 27.4213Z" fill="#F8DEDC"/>
<path id="Stroke 33" fill-rule="evenodd" clip-rule="evenodd" d="M57.22 27.4213C56.6424 25.5912 54.6899 24.5769 52.858 25.156C51.0269 25.7351 50.0101 27.6876 50.5877 29.5178C51.1644 31.3479 53.1178 32.3621 54.9488 31.7831C56.7808 31.204 57.7968 29.2515 57.22 27.4213Z" stroke="#FFA7A1" stroke-width="0.28"/>
<path id="Fill 35" fill-rule="evenodd" clip-rule="evenodd" d="M129.72 236.411C129.72 236.411 135.665 218.753 97.9787 197.465C97.9787 197.465 59.7139 186.321 63.6269 148.053C63.6269 148.053 19.5164 180.323 49.365 221.43C79.2128 262.536 104.976 253.564 104.976 253.564L129.72 236.411Z" fill="#F8DEDC"/>
<path id="Stroke 37" fill-rule="evenodd" clip-rule="evenodd" d="M129.72 236.411C129.72 236.411 135.665 218.753 97.9787 197.465C97.9787 197.465 59.7139 186.321 63.6269 148.053C63.6269 148.053 19.5164 180.323 49.365 221.43C79.2128 262.536 104.976 253.564 104.976 253.564L129.72 236.411Z" stroke="#FFA7A1" stroke-width="0.56"/>
<path id="Fill 39" fill-rule="evenodd" clip-rule="evenodd" d="M74.707 254.394H280.043V16.6919H74.707V254.394Z" fill="#D2DADD"/>
<path id="Stroke 41" fill-rule="evenodd" clip-rule="evenodd" d="M74.707 254.394H280.043V16.6919H74.707V254.394Z" stroke="#979797" stroke-width="0.28"/>
<path id="Fill 42" fill-rule="evenodd" clip-rule="evenodd" d="M87.2109 47.9681H138.991V43.5H87.2109V47.9681Z" fill="white"/>
<path id="Fill 43" fill-rule="evenodd" clip-rule="evenodd" d="M87.2109 57.7987H175.595V53.3306H87.2109V57.7987Z" fill="white"/>
<path id="Fill 44" fill-rule="evenodd" clip-rule="evenodd" d="M233.625 71.2024H270.228V39.9258H233.625V71.2024Z" fill="#C4CDD0"/>
<path id="Fill 46" fill-rule="evenodd" clip-rule="evenodd" d="M196.125 71.2024H232.728V39.9258H196.125V71.2024Z" fill="#C4CDD0"/>
<path id="Fill 48" fill-rule="evenodd" clip-rule="evenodd" d="M233.625 103.372H270.228V72.0952H233.625V103.372Z" fill="#F8DEDC"/>
<path id="Fill 49" fill-rule="evenodd" clip-rule="evenodd" d="M232.723 103.372H270.219V71.2017H232.723V103.372ZM233.098 103.004H269.851V71.5708H233.098V103.004Z" fill="#E2E2EC"/>
<path id="Fill 50" fill-rule="evenodd" clip-rule="evenodd" d="M196.125 103.372H232.728V72.0952H196.125V103.372Z" fill="#C4CDD0"/>
<path id="Fill 52" fill-rule="evenodd" clip-rule="evenodd" d="M159.516 103.372H196.119V72.0952H159.516V103.372Z" fill="#C4CDD0"/>
<path id="Fill 54" fill-rule="evenodd" clip-rule="evenodd" d="M122.027 103.372H158.631V72.0952H122.027V103.372Z" fill="#C4CDD0"/>
<path id="Fill 56" fill-rule="evenodd" clip-rule="evenodd" d="M84.5273 103.372H121.131V72.0952H84.5273V103.372Z" fill="#F8DEDC"/>
<path id="Fill 57" fill-rule="evenodd" clip-rule="evenodd" d="M84.5156 103.372H122.012V71.2017H84.5156V103.372ZM84.8906 103.004H121.644V71.5708H84.8906V103.004Z" fill="#E2E2EC"/>
<path id="Fill 58" fill-rule="evenodd" clip-rule="evenodd" d="M233.625 134.649H270.228V103.373H233.625V134.649Z" fill="#C4CDD0"/>
<path id="Fill 60" fill-rule="evenodd" clip-rule="evenodd" d="M196.125 134.649H232.728V103.373H196.125V134.649Z" fill="#C4CDD0"/>
<path id="Fill 62" fill-rule="evenodd" clip-rule="evenodd" d="M159.516 134.649H196.119V103.373H159.516V134.649Z" fill="#C4CDD0"/>
<path id="Fill 64" fill-rule="evenodd" clip-rule="evenodd" d="M122.027 134.649H158.631V103.373H122.027V134.649Z" fill="#C4CDD0"/>
<path id="Fill 66" fill-rule="evenodd" clip-rule="evenodd" d="M84.5273 134.649H121.131V103.373H84.5273V134.649Z" fill="#C4CDD0"/>
<path id="Fill 68" fill-rule="evenodd" clip-rule="evenodd" d="M233.625 166.82H270.228V135.543H233.625V166.82Z" fill="#F8DEDC"/>
<path id="Fill 69" fill-rule="evenodd" clip-rule="evenodd" d="M232.723 167.712H270.219V135.542H232.723V167.712ZM233.098 167.344H269.851V135.911H233.098V167.344Z" fill="#E2E2EC"/>
<path id="Fill 70" fill-rule="evenodd" clip-rule="evenodd" d="M196.125 166.82H232.728V135.543H196.125V166.82Z" fill="#C4CDD0"/>
<path id="Fill 72" fill-rule="evenodd" clip-rule="evenodd" d="M159.516 166.82H196.119V135.543H159.516V166.82Z" fill="#C4CDD0"/>
<path id="Fill 74" fill-rule="evenodd" clip-rule="evenodd" d="M122.027 166.82H158.631V135.543H122.027V166.82Z" fill="#C4CDD0"/>
<path id="Fill 76" fill-rule="evenodd" clip-rule="evenodd" d="M84.5273 166.82H121.131V135.543H84.5273V166.82Z" fill="#C4CDD0"/>
<path id="Fill 78" fill-rule="evenodd" clip-rule="evenodd" d="M233.625 198.989H270.228V167.713H233.625V198.989Z" fill="#C4CDD0"/>
<path id="Fill 80" fill-rule="evenodd" clip-rule="evenodd" d="M196.125 198.989H232.728V167.713H196.125V198.989Z" fill="#C4CDD0"/>
<path id="Fill 82" fill-rule="evenodd" clip-rule="evenodd" d="M159.516 198.989H196.119V167.713H159.516V198.989Z" fill="#C4CDD0"/>
<path id="Fill 84" fill-rule="evenodd" clip-rule="evenodd" d="M122.027 198.989H158.631V167.713H122.027V198.989Z" fill="#C4CDD0"/>
<path id="Fill 86" fill-rule="evenodd" clip-rule="evenodd" d="M84.5273 198.989H121.131V167.713H84.5273V198.989Z" fill="#C4CDD0"/>
<path id="Fill 88" fill-rule="evenodd" clip-rule="evenodd" d="M233.625 231.159H270.228V199.882H233.625V231.159Z" fill="#C4CDD0"/>
<path id="Fill 90" fill-rule="evenodd" clip-rule="evenodd" d="M196.125 231.159H232.728V199.882H196.125V231.159Z" fill="#C4CDD0"/>
<path id="Fill 92" fill-rule="evenodd" clip-rule="evenodd" d="M159.516 231.159H196.119V199.882H159.516V231.159Z" fill="#C4CDD0"/>
<path id="Fill 94" fill-rule="evenodd" clip-rule="evenodd" d="M122.027 231.159H158.631V199.882H122.027V231.159Z" fill="#C4CDD0"/>
<path id="Fill 96" fill-rule="evenodd" clip-rule="evenodd" d="M84.5273 231.159H121.131V199.882H84.5273V231.159Z" fill="#C4CDD0"/>
<path id="Fill 98" fill-rule="evenodd" clip-rule="evenodd" d="M161.576 260.174C162.619 259.367 163.601 258.415 163.905 257.253C164.228 255.978 163.511 254.668 162.276 254.277C160.783 253.801 159.188 254.649 157.976 255.531C156.764 256.413 155.381 257.392 153.796 257.209C155.435 255.999 156.216 254.039 155.764 252.257C155.686 251.873 155.495 251.522 155.216 251.252C154.388 250.508 152.884 250.832 151.891 251.412C148.733 253.272 147.853 256.826 147.835 260.037C147.517 258.88 147.783 257.674 147.776 256.484C147.769 255.293 147.379 253.979 146.174 253.339C145.403 252.999 144.567 252.835 143.727 252.859C142.308 252.815 140.727 252.933 139.76 253.797C138.555 254.869 138.869 256.67 139.917 257.849C140.964 259.029 142.56 259.769 144.024 260.584C145.141 261.205 146.272 261.93 146.944 262.913C147.032 263.043 147.106 263.183 147.163 263.33H156.059C158.019 262.515 159.872 261.455 161.576 260.174Z" fill="#F8DEDC"/>
<path id="Stroke 99" fill-rule="evenodd" clip-rule="evenodd" d="M161.576 260.174C162.619 259.367 163.601 258.415 163.905 257.253C164.228 255.978 163.511 254.668 162.276 254.277C160.783 253.801 159.188 254.649 157.976 255.531C156.764 256.413 155.381 257.392 153.796 257.209C155.435 255.999 156.216 254.039 155.764 252.257C155.686 251.873 155.495 251.522 155.216 251.252C154.388 250.508 152.884 250.832 151.891 251.412C148.733 253.272 147.853 256.826 147.835 260.037C147.517 258.88 147.783 257.674 147.776 256.484C147.769 255.293 147.379 253.979 146.174 253.339C145.403 252.999 144.567 252.835 143.727 252.859C142.308 252.815 140.727 252.933 139.76 253.797C138.555 254.869 138.869 256.67 139.917 257.849C140.964 259.029 142.56 259.769 144.024 260.584C145.141 261.205 146.272 261.93 146.944 262.913C147.032 263.043 147.106 263.183 147.163 263.33H156.059C158.019 262.515 159.872 261.455 161.576 260.174Z" stroke="#FFA7A1" stroke-width="0.56"/>
<path id="Fill 100" fill-rule="evenodd" clip-rule="evenodd" d="M89.4428 73.8838C90.6758 73.8838 91.6748 74.8837 91.6748 76.1178C91.6748 77.351 90.6758 78.3519 89.4428 78.3519C88.2099 78.3519 87.2109 77.351 87.2109 76.1178C87.2109 74.8837 88.2099 73.8838 89.4428 73.8838Z" fill="white"/>
<path id="Fill 101" fill-rule="evenodd" clip-rule="evenodd" d="M94.7983 73.8838C96.0312 73.8838 97.0302 74.8837 97.0302 76.1178C97.0302 77.351 96.0312 78.3519 94.7983 78.3519C93.5654 78.3519 92.5664 77.351 92.5664 76.1178C92.5664 74.8837 93.5654 73.8838 94.7983 73.8838Z" fill="white"/>
<path id="Fill 102" fill-rule="evenodd" clip-rule="evenodd" d="M163.541 105.16C164.773 105.16 165.772 106.16 165.772 107.394C165.772 108.627 164.773 109.628 163.541 109.628C162.308 109.628 161.309 108.627 161.309 107.394C161.309 106.16 162.308 105.16 163.541 105.16Z" fill="white"/>
<path id="Fill 103" fill-rule="evenodd" clip-rule="evenodd" d="M168.884 105.16C170.117 105.16 171.116 106.16 171.116 107.394C171.116 108.627 170.117 109.628 168.884 109.628C167.651 109.628 166.652 108.627 166.652 107.394C166.652 106.16 167.651 105.16 168.884 105.16Z" fill="white"/>
<path id="Fill 104" fill-rule="evenodd" clip-rule="evenodd" d="M276.017 165.031C277.25 165.031 278.249 166.031 278.249 167.265C278.249 168.498 277.25 169.499 276.017 169.499C274.784 169.499 273.785 168.498 273.785 167.265C273.785 166.031 274.784 165.031 276.017 165.031Z" fill="#E09285"/>
<path id="Fill 105" fill-rule="evenodd" clip-rule="evenodd" d="M276.919 162.352C278.152 162.352 279.151 163.352 279.151 164.586C279.151 165.819 278.152 166.82 276.919 166.82C275.687 166.82 274.688 165.819 274.688 164.586C274.688 163.352 275.687 162.352 276.919 162.352Z" fill="#E09285"/>
<path id="Fill 106" fill-rule="evenodd" clip-rule="evenodd" d="M277.81 160.563C279.043 160.563 280.042 161.563 280.042 162.797C280.042 164.03 279.043 165.031 277.81 165.031C276.577 165.031 275.578 164.03 275.578 162.797C275.578 161.563 276.577 160.563 277.81 160.563Z" fill="#E09285"/>
<path id="Fill 107" fill-rule="evenodd" clip-rule="evenodd" d="M238.529 73.8838C239.762 73.8838 240.761 74.8837 240.761 76.1178C240.761 77.351 239.762 78.3519 238.529 78.3519C237.296 78.3519 236.297 77.351 236.297 76.1178C236.297 74.8837 237.296 73.8838 238.529 73.8838Z" fill="white"/>
<path id="Fill 108" fill-rule="evenodd" clip-rule="evenodd" d="M243.896 73.8838C245.129 73.8838 246.128 74.8837 246.128 76.1178C246.128 77.351 245.129 78.3519 243.896 78.3519C242.663 78.3519 241.664 77.351 241.664 76.1178C241.664 74.8837 242.663 73.8838 243.896 73.8838Z" fill="white"/>
<path id="Fill 109" fill-rule="evenodd" clip-rule="evenodd" d="M249.24 73.8838C250.473 73.8838 251.472 74.8837 251.472 76.1178C251.472 77.351 250.473 78.3519 249.24 78.3519C248.007 78.3519 247.008 77.351 247.008 76.1178C247.008 74.8837 248.007 73.8838 249.24 73.8838Z" fill="white"/>
<path id="Fill 110" fill-rule="evenodd" clip-rule="evenodd" d="M254.595 73.8838C255.828 73.8838 256.827 74.8837 256.827 76.1178C256.827 77.351 255.828 78.3519 254.595 78.3519C253.362 78.3519 252.363 77.351 252.363 76.1178C252.363 74.8837 253.362 73.8838 254.595 73.8838Z" fill="white"/>
<path id="Fill 111" fill-rule="evenodd" clip-rule="evenodd" d="M238.529 139.118C239.762 139.118 240.761 140.118 240.761 141.352C240.761 142.585 239.762 143.586 238.529 143.586C237.296 143.586 236.297 142.585 236.297 141.352C236.297 140.118 237.296 139.118 238.529 139.118Z" fill="white"/>
<path id="Fill 112" fill-rule="evenodd" clip-rule="evenodd" d="M243.896 139.118C245.129 139.118 246.128 140.118 246.128 141.352C246.128 142.585 245.129 143.586 243.896 143.586C242.663 143.586 241.664 142.585 241.664 141.352C241.664 140.118 242.663 139.118 243.896 139.118Z" fill="white"/>
<path id="Fill 113" fill-rule="evenodd" clip-rule="evenodd" d="M249.24 139.118C250.473 139.118 251.472 140.118 251.472 141.352C251.472 142.585 250.473 143.586 249.24 143.586C248.007 143.586 247.008 142.585 247.008 141.352C247.008 140.118 248.007 139.118 249.24 139.118Z" fill="white"/>
<path id="Fill 114" fill-rule="evenodd" clip-rule="evenodd" d="M254.595 139.118C255.828 139.118 256.827 140.118 256.827 141.352C256.827 142.585 255.828 143.586 254.595 143.586C253.362 143.586 252.363 142.585 252.363 141.352C252.363 140.118 253.362 139.118 254.595 139.118Z" fill="white"/>
<path id="Fill 115" fill-rule="evenodd" clip-rule="evenodd" d="M126.943 105.16C128.176 105.16 129.175 106.16 129.175 107.394C129.175 108.627 128.176 109.628 126.943 109.628C125.71 109.628 124.711 108.627 124.711 107.394C124.711 106.16 125.71 105.16 126.943 105.16Z" fill="white"/>
<path id="Fill 116" fill-rule="evenodd" clip-rule="evenodd" d="M89.4428 136.436C90.6758 136.436 91.6748 137.436 91.6748 138.67C91.6748 139.903 90.6758 140.904 89.4428 140.904C88.2099 140.904 87.2109 139.903 87.2109 138.67C87.2109 137.436 88.2099 136.436 89.4428 136.436Z" fill="white"/>
<path id="Fill 121" fill-rule="evenodd" clip-rule="evenodd" d="M313.623 262.233L314.853 265.973L310.838 270.041L297.609 273.159L288.07 272.224L288.687 268.795C289.059 267.292 290.228 266.125 291.717 265.772C295.637 264.84 303.113 262.71 304.683 259.755L313.623 262.233Z" fill="#EEDBC2"/>
<path id="Fill 123" fill-rule="evenodd" clip-rule="evenodd" d="M290.424 271.554L292.305 268.979L290.424 265.995C290.424 265.995 284.783 268.333 282.276 268.012C279.77 267.692 278.517 272.215 283.217 273.488C287.918 274.759 314.558 273.488 314.558 273.488C314.558 273.488 319.257 271.233 314.558 265.116L310.467 268.337C310.467 268.337 303.573 272.2 300.125 271.557L290.424 271.554Z" fill="#9BA7AB"/>
<path id="Stroke 125" fill-rule="evenodd" clip-rule="evenodd" d="M290.424 271.554L292.305 268.979L290.424 265.995C290.424 265.995 284.783 268.333 282.276 268.012C279.77 267.692 278.517 272.215 283.217 273.488C287.918 274.759 314.558 273.488 314.558 273.488C314.558 273.488 319.257 271.233 314.558 265.116L310.467 268.337C310.467 268.337 303.573 272.2 300.125 271.557L290.424 271.554Z" stroke="#979797" stroke-width="0.28"/>
<path id="Fill 127" fill-rule="evenodd" clip-rule="evenodd" d="M282.727 276.692L292.265 277.627L305.494 274.512L309.509 270.447L309.185 269.456L308.725 268.066L308.264 266.713L299.343 264.223C298.887 264.976 298.262 265.61 297.518 266.071C294.62 268.078 289.414 269.526 286.358 270.251C286.235 270.281 286.113 270.32 285.994 270.364C284.679 270.812 283.679 271.908 283.343 273.27L282.727 276.692Z" fill="#EEDBC2"/>
<path id="Fill 131" fill-rule="evenodd" clip-rule="evenodd" d="M285.959 276.022L287.841 273.447L285.959 270.462C285.959 270.462 280.318 272.801 277.811 272.48C275.305 272.159 274.052 276.683 278.752 277.955C283.453 279.227 310.093 277.955 310.093 277.955C310.093 277.955 314.792 275.701 310.093 269.584L306.002 272.805C306.002 272.805 299.108 276.668 295.66 276.025L285.959 276.022Z" fill="#9BA7AB"/>
<path id="Stroke 133" fill-rule="evenodd" clip-rule="evenodd" d="M285.959 276.022L287.841 273.447L285.959 270.462C285.959 270.462 280.318 272.801 277.811 272.48C275.305 272.159 274.052 276.683 278.752 277.955C283.453 279.227 310.093 277.955 310.093 277.955C310.093 277.955 314.792 275.701 310.093 269.584L306.002 272.805C306.002 272.805 299.108 276.668 295.66 276.025L285.959 276.022Z" stroke="#979797" stroke-width="0.28"/>
<path id="Fill 135" fill-rule="evenodd" clip-rule="evenodd" d="M293.426 96.0478C293.426 96.0478 308.603 97.6313 306.39 91.292C305.771 89.494 305.609 87.5701 305.921 85.6935C306.315 83.3674 307.231 81.1619 308.603 79.2451L294.375 81.4649C295.227 82.8946 295.876 84.437 296.303 86.0473C297.999 92.7709 293.426 96.0478 293.426 96.0478Z" fill="#DB8B8B"/>
<path id="Fill 137" fill-rule="evenodd" clip-rule="evenodd" d="M318.429 166.819C318.429 166.819 318.123 180.162 315.047 186.678L314.43 205.606C314.43 205.606 315.353 222.983 317.2 226.396C319.046 229.81 313.185 258.666 313.185 258.666V263.633C313.185 263.633 303.333 267.355 300.574 263.011L303.344 226.083L302.114 174.886L318.429 166.819Z" fill="#C6D1D5"/>
<path id="Stroke 139" fill-rule="evenodd" clip-rule="evenodd" d="M318.429 166.819C318.429 166.819 318.123 180.162 315.047 186.678L314.43 205.606C314.43 205.606 315.353 222.983 317.2 226.396C319.046 229.81 313.185 258.666 313.185 258.666V263.633C313.185 263.633 303.333 267.355 300.574 263.011L303.344 226.083L302.114 174.886L318.429 166.819Z" stroke="#979797" stroke-width="0.28"/>
<path id="Fill 141" fill-rule="evenodd" clip-rule="evenodd" d="M325.556 123.924L327.46 128.861L329.045 139.348C329.479 142.312 328.416 145.298 326.188 147.366C322.383 151.065 317.306 158.775 317.306 158.775L311.285 141.21C311.285 141.21 317.306 140.285 316.361 136.274C315.417 132.264 315.722 124.836 315.722 124.836L325.556 123.924Z" fill="#E09285" stroke="#B77064" stroke-width="0.28"/>
<path id="Fill 145" fill-rule="evenodd" clip-rule="evenodd" d="M285.398 178.892C285.708 183.23 290.993 199.036 290.993 199.036L294.722 212.041C297.394 221.237 298.773 230.759 298.819 240.332C298.819 243.506 299.11 246.779 300.011 249.239C302.497 256.056 297.525 265.355 297.525 265.355C301.877 273.103 309.327 267.834 309.327 267.834V262.877C309.327 262.877 315.228 235.913 313.679 230.647C312.13 225.381 311.503 211.122 311.503 211.122V185.382C316.482 180.435 319.51 173.867 320.033 166.879C320.107 165.864 320.166 164.797 320.206 163.69C320.458 156.704 315.663 148.501 313.789 145.581C313.339 144.875 313.052 144.478 313.052 144.478L285.605 155.332L285.542 155.358V156.417V158.759L285.398 178.892Z" fill="#D2DADD"/>
<path id="Stroke 147" fill-rule="evenodd" clip-rule="evenodd" d="M285.398 178.892C285.708 183.23 290.993 199.036 290.993 199.036L294.722 212.041C297.394 221.237 298.773 230.759 298.819 240.332C298.819 243.506 299.11 246.779 300.011 249.239C302.497 256.056 297.525 265.355 297.525 265.355C301.877 273.103 309.327 267.834 309.327 267.834V262.877C309.327 262.877 315.228 235.913 313.679 230.647C312.13 225.381 311.503 211.122 311.503 211.122V185.382C316.482 180.435 319.51 173.867 320.033 166.879C320.107 165.864 320.166 164.797 320.206 163.69C320.458 156.704 315.663 148.501 313.789 145.581C313.339 144.875 313.052 144.478 313.052 144.478L285.605 155.332L285.542 155.358V156.417V158.759L285.398 178.892Z" stroke="#979797" stroke-width="0.28"/>
<path id="Fill 149" fill-rule="evenodd" clip-rule="evenodd" d="M294.328 81.3281C295.183 82.6721 295.835 84.1216 296.264 85.6354C299.398 86.7524 302.881 86.6326 305.92 85.3029C306.315 83.1181 307.236 81.0466 308.612 79.2451L294.328 81.3281Z" fill="black"/>
<path id="Fill 151" fill-rule="evenodd" clip-rule="evenodd" d="M300.123 62.2661C306.779 62.2661 312.175 67.6671 312.175 74.3299C312.175 80.9928 306.779 86.3938 300.123 86.3938C293.466 86.3938 288.07 80.9928 288.07 74.3299C288.07 67.6671 293.466 62.2661 300.123 62.2661Z" fill="#EEDBC2"/>
<path id="Stroke 153" fill-rule="evenodd" clip-rule="evenodd" d="M300.123 62.2661C306.779 62.2661 312.175 67.6671 312.175 74.3299C312.175 80.9928 306.779 86.3938 300.123 86.3938C293.466 86.3938 288.07 80.9928 288.07 74.3299C288.07 67.6671 293.466 62.2661 300.123 62.2661Z" stroke="#DDCCB4" stroke-width="0.28"/>
<path id="Fill 157" fill-rule="evenodd" clip-rule="evenodd" d="M288.65 95.4364C288.65 95.4364 306.13 84.8837 311.75 89.2285L319.552 99.17C319.552 99.17 324.548 100.72 323.626 110.649L327.355 128.643L316.12 131.438C316.12 131.438 309.564 137.646 314.872 146.644C314.872 146.644 298.328 160.297 285.217 157.505L286.154 142.921C286.154 142.921 288.965 134.855 283.969 127.406C278.973 119.957 283.658 112.823 288.339 110.027C288.339 110.024 290.521 98.2308 288.65 95.4364Z" fill="#E09285"/>
<path id="Stroke 159" fill-rule="evenodd" clip-rule="evenodd" d="M288.65 95.4364C288.65 95.4364 306.13 84.8837 311.75 89.2285L319.552 99.17C319.552 99.17 324.548 100.72 323.626 110.649L327.355 128.643L316.12 131.438C316.12 131.438 309.564 137.646 314.872 146.644C314.872 146.644 298.328 160.297 285.217 157.505L286.154 142.921C286.154 142.921 288.965 134.855 283.969 127.406C278.973 119.957 283.658 112.823 288.339 110.027C288.339 110.024 290.521 98.2308 288.65 95.4364Z" stroke="#B77064" stroke-width="0.28"/>
<path id="Fill 161" fill-rule="evenodd" clip-rule="evenodd" d="M287.544 158.777C287.544 158.777 280.988 160 277.865 164.892C276.964 166.36 275.865 167.702 274.598 168.882C274.021 169.395 273.724 170.145 273.796 170.906C273.869 171.667 274.303 172.35 274.969 172.748C277.446 174.199 281.488 175.103 286.593 170.997C295.349 163.975 287.544 158.777 287.544 158.777Z" fill="#EEDBC2"/>
<path id="Stroke 163" fill-rule="evenodd" clip-rule="evenodd" d="M287.544 158.777C287.544 158.777 280.988 160 277.865 164.892C276.964 166.36 275.865 167.702 274.598 168.882C274.021 169.395 273.724 170.145 273.796 170.906C273.869 171.667 274.303 172.35 274.969 172.748C277.446 174.199 281.488 175.103 286.593 170.997C295.349 163.975 287.544 158.777 287.544 158.777Z" stroke="#DDCCB4" stroke-width="0.28"/>
<path id="Fill 167" fill-rule="evenodd" clip-rule="evenodd" d="M296.664 100.923C296.664 100.923 302.778 100.305 304.305 116.341C305.832 132.378 308.293 136.077 308.293 136.077C308.293 136.077 309.82 144.404 306.154 149.336C302.487 154.268 295.456 164.755 295.456 164.755C295.456 164.755 287.816 166.913 286.289 159.204L295.765 141.32C295.765 141.32 297.291 135.152 293.625 130.834C289.959 126.517 287.2 97.8387 296.664 100.923Z" fill="#E09285"/>
<path id="Stroke 169" fill-rule="evenodd" clip-rule="evenodd" d="M296.664 100.923C296.664 100.923 302.778 100.305 304.305 116.341C305.832 132.378 308.293 136.077 308.293 136.077C308.293 136.077 309.82 144.404 306.154 149.336C302.487 154.268 295.456 164.755 295.456 164.755C295.456 164.755 287.816 166.913 286.289 159.204L295.765 141.32C295.765 141.32 297.291 135.152 293.625 130.834C289.959 126.517 287.2 97.8387 296.664 100.923Z" stroke="#B77064" stroke-width="0.28"/>
<path id="Fill 175" fill-rule="evenodd" clip-rule="evenodd" d="M307.268 58.1553C309.129 58.3876 311.267 59.0382 311.929 60.8156C312.176 61.4688 312.183 62.19 312.354 62.8655C313.048 65.5848 316.063 66.852 317.921 68.9323C319.561 70.7794 320.284 73.2512 320.83 75.6711C322.359 82.61 322.728 89.7616 321.92 96.8257C321.324 101.998 320.102 107.074 319.76 112.261C319.418 117.449 320.044 122.905 322.833 127.264C324.033 129.138 325.617 130.785 326.468 132.846C324.712 134.295 322.287 134.502 320.022 134.579C317.387 134.67 314.752 134.67 312.114 134.579C310.732 134.532 309.289 134.439 308.096 133.73C307.213 133.156 306.487 132.364 305.987 131.428C304.479 128.842 304.101 125.702 304.17 122.687C304.238 119.672 304.704 116.672 304.759 113.653C304.787 112.01 304.661 110.263 303.73 108.918C303.057 107.946 302.035 107.292 301.163 106.505C297.891 103.549 296.756 98.8131 296.647 94.3611C296.537 89.9091 297.261 85.4499 296.89 81.0131C296.745 79.2768 296.105 77.1893 294.425 76.8533C293.895 76.7461 293.335 76.8533 292.825 76.646C291.477 76.1179 291.608 74.185 291.222 72.7704C290.79 71.1824 289.455 69.9555 289.081 68.3372C288.197 64.5688 292.916 60.073 296.011 58.7612C299.156 57.4234 303.952 57.7415 307.268 58.1553Z" fill="black"/>
<path id="Fill 177" fill-rule="evenodd" clip-rule="evenodd" d="M307.268 58.158C309.129 58.3903 311.267 59.0408 311.929 60.8183C312.176 61.4715 312.183 62.1926 312.354 62.8682C313.048 65.5875 316.063 66.8546 317.921 68.935C319.561 70.7812 320.284 73.2529 320.83 75.6728C322.359 82.6118 322.728 89.7634 321.92 96.8266C321.324 101.999 320.102 107.075 319.76 112.262C319.418 117.449 320.044 122.906 322.833 127.265C324.033 129.138 325.617 130.786 326.468 132.847C324.712 134.295 322.287 134.502 320.022 134.58C317.387 134.671 314.752 134.671 312.114 134.58C310.732 134.532 309.289 134.439 308.096 133.73C307.213 133.156 306.487 132.365 305.987 131.428C304.479 128.842 304.101 125.702 304.17 122.687C304.238 119.673 304.704 116.673 304.759 113.655C304.787 112.011 304.661 110.264 303.73 108.919C303.057 107.947 302.035 107.293 301.163 106.506C297.891 103.55 296.756 98.8148 296.647 94.3628C296.537 89.9109 297.261 85.4517 296.89 81.0149C296.745 79.2786 296.105 77.1911 294.425 76.8551C293.895 76.7479 293.335 76.8551 292.825 76.6478C291.477 76.1206 291.608 74.1877 291.222 72.7731C290.79 71.1842 289.455 69.9582 289.081 68.3398C288.197 64.5714 292.916 60.0757 296.011 58.7638C299.156 57.4225 303.952 57.7406 307.268 58.158Z" fill="#9BA7AB"/>
<path id="Stroke 179" fill-rule="evenodd" clip-rule="evenodd" d="M307.268 58.158C309.129 58.3903 311.267 59.0408 311.929 60.8183C312.176 61.4715 312.183 62.1926 312.354 62.8682C313.048 65.5875 316.063 66.8546 317.921 68.935C319.561 70.7812 320.284 73.2529 320.83 75.6728C322.359 82.6118 322.728 89.7634 321.92 96.8266C321.324 101.999 320.102 107.075 319.76 112.262C319.418 117.449 320.044 122.906 322.833 127.265C324.033 129.138 325.617 130.786 326.468 132.847C324.712 134.295 322.287 134.502 320.022 134.58C317.387 134.671 314.752 134.671 312.114 134.58C310.732 134.532 309.289 134.439 308.096 133.73C307.213 133.156 306.487 132.365 305.987 131.428C304.479 128.842 304.101 125.702 304.17 122.687C304.238 119.673 304.704 116.673 304.759 113.655C304.787 112.011 304.661 110.264 303.73 108.919C303.057 107.947 302.035 107.293 301.163 106.506C297.891 103.55 296.756 98.8148 296.647 94.3628C296.537 89.9108 297.261 85.4517 296.89 81.0149C296.745 79.2786 296.105 77.1911 294.425 76.8551C293.895 76.7479 293.335 76.8551 292.825 76.6478C291.477 76.1206 291.608 74.1877 291.222 72.7731C290.79 71.1842 289.455 69.9582 289.081 68.3398C288.197 64.5714 292.916 60.0757 296.011 58.7638C299.156 57.4225 303.952 57.7406 307.268 58.158Z" stroke="#979797" stroke-width="0.28"/>
</g>
</svg>
